<?xml version="1.0" standalone="no"?>
<!DOCTYPE svg PUBLIC "-//W3C//DTD SVG 20010904//EN"
 "http://www.w3.org/TR/2001/REC-SVG-20010904/DTD/svg10.dtd">
<svg version="1.0" xmlns="http://www.w3.org/2000/svg"
 width="166.000000pt" height="166.000000pt" viewBox="0 0 166.000000 166.000000"
 preserveAspectRatio="xMidYMid meet">

<g transform="translate(0.000000,166.000000) scale(0.100000,-0.100000)"
fill="#000000" stroke="none">
<path d="M0 830 l0 -830 572 0 c314 0 569 2 566 5 -6 7 -46 17 -70 18 -9 1
-14 6 -11 11 4 5 -1 7 -10 3 -8 -3 -21 1 -27 8 -9 11 -17 12 -31 4 -14 -7 -19
-6 -19 2 0 6 -6 9 -14 6 -8 -3 -16 -1 -18 4 -2 6 -18 12 -37 15 -20 4 -31 2
-27 -4 4 -6 -2 -8 -14 -5 -11 3 -25 14 -31 25 -8 15 -14 17 -24 8 -18 -15 -57
-22 -49 -9 4 7 -7 9 -32 5 -24 -4 -34 -3 -25 3 11 7 11 10 0 17 -19 12 -48 12
-46 1 3 -13 -132 -15 -137 -2 -3 6 -5 4 -5 -2 -1 -8 -15 -13 -37 -13 -23 0
-33 4 -28 11 5 8 1 8 -14 0 -12 -6 -31 -9 -44 -7 -13 3 -29 5 -36 5 -7 1 -11
5 -7 10 3 5 1 12 -5 16 -5 3 -10 10 -10 15 0 10 59 34 80 33 8 -1 20 7 28 18
7 10 20 19 28 19 8 0 14 6 14 13 0 8 4 7 10 -3 9 -13 11 -13 19 -1 13 20 41
23 69 9 18 -9 25 -9 35 2 10 10 9 11 -2 5 -9 -5 -12 -4 -8 2 7 11 46 11 65 0
7 -5 10 -13 7 -18 -4 -5 -1 -9 5 -9 6 0 9 -14 7 -35 -2 -19 0 -32 4 -29 5 3 9
-3 9 -12 0 -16 1 -16 18 -1 10 10 22 14 25 10 4 -3 7 -1 7 5 0 7 8 12 19 12
10 0 26 11 35 25 9 14 22 25 29 25 9 0 8 -3 -1 -9 -10 -6 -9 -10 7 -14 15 -3
26 2 36 16 9 12 19 22 23 22 4 0 6 3 4 8 -1 4 7 2 17 -5 11 -7 17 -16 15 -20
-3 -4 0 -8 6 -8 6 0 8 -5 5 -11 -4 -6 -13 -8 -21 -5 -8 3 -14 1 -14 -5 0 -6
-6 -7 -12 -3 -9 6 -9 3 0 -9 8 -9 11 -21 7 -27 -3 -5 -1 -10 4 -10 6 0 11 7
11 16 0 9 5 12 12 8 7 -4 8 -3 4 4 -7 11 6 17 28 13 5 -1 6 5 3 13 -7 17 19
30 29 15 3 -6 12 -8 18 -6 7 3 18 -4 25 -15 11 -18 10 -19 -11 -13 -18 5 -20
4 -8 -4 21 -15 27 -14 47 7 13 14 25 17 43 11 14 -4 18 -8 10 -8 -13 -1 -13
-2 0 -11 9 -5 19 -5 27 2 10 8 12 7 7 -6 -4 -9 -3 -16 2 -15 26 4 36 -1 25
-14 -14 -17 -2 -30 15 -16 9 7 14 5 18 -9 4 -11 16 -30 27 -43 11 -12 17 -29
14 -36 -2 -8 0 -11 5 -8 6 3 10 -1 10 -9 0 -14 25 -16 195 -16 l195 0 0 830 0
830 -830 0 -830 0 0 -830z m1160 191 c14 -28 12 -86 -4 -126 -22 -51 -68 -75
-145 -75 -60 0 -65 2 -102 39 -22 21 -39 45 -39 52 0 13 238 127 267 128 7 1
17 -8 23 -18z m-460 -42 c118 -56 128 -68 88 -107 -68 -62 -191 -52 -229 20
-25 46 -10 138 23 138 4 0 58 -23 118 -51z m-249 -100 c8 -17 8 -20 -2 -17 -7
2 -13 12 -15 21 -3 23 3 21 17 -4z m779 -9 c0 -5 -5 -10 -11 -10 -5 0 -7 5 -4
10 3 6 8 10 11 10 2 0 4 -4 4 -10z m-710 -60 c0 -5 -2 -10 -4 -10 -3 0 -8 5
-11 10 -3 6 -1 10 4 10 6 0 11 -4 11 -10z m50 -6 c0 -8 -19 -13 -24 -6 -3 5 1
9 9 9 8 0 15 -2 15 -3z m85 -12 c-10 -11 -44 -12 -50 -2 -3 5 0 7 8 4 8 -3 18
0 22 5 3 6 11 9 16 5 6 -3 8 -9 4 -12z m379 -10 c2 -4 -12 -6 -32 -4 -62 6
-69 10 -20 11 26 0 49 -3 52 -7z m83 -14 c-3 -8 -6 -5 -6 6 -1 11 2 17 5 13 3
-3 4 -12 1 -19z m-114 -5 c-7 -2 -21 -2 -30 0 -10 3 -4 5 12 5 17 0 24 -2 18
-5z m-186 -9 c-3 -3 -12 -4 -19 -1 -8 3 -5 6 6 6 11 1 17 -2 13 -5z m-47 -154
l0 -40 -50 0 c-46 0 -50 2 -50 24 0 47 10 56 56 56 l44 0 0 -40z m128 25 c13
-5 16 -53 4 -71 -10 -16 -122 -6 -122 11 0 7 3 26 6 42 6 29 8 30 52 26 26 -3
53 -6 60 -8z m144 -21 c10 -7 10 -55 0 -72 -7 -9 -20 -10 -65 -1 -49 10 -57
15 -57 35 0 50 9 57 63 49 28 -3 54 -8 59 -11z m106 -26 c18 -15 16 -92 -2
-85 -8 3 -31 9 -50 13 -31 5 -36 10 -36 34 0 50 9 62 44 54 17 -3 37 -11 44
-16z m52 -76 c0 -40 -25 -19 -28 24 -2 37 -1 38 13 20 8 -11 15 -31 15 -44z
m-442 1 c-4 -48 -27 -54 -50 -13 -9 16 -24 30 -33 30 -8 0 -15 5 -15 10 0 6
23 10 51 10 l50 0 -3 -37z m96 31 c41 -6 46 -9 46 -33 0 -47 -12 -53 -74 -46
-59 8 -63 13 -50 63 7 24 10 25 78 16z m183 -28 c3 -2 1 -21 -3 -41 l-7 -37
-51 7 c-66 9 -66 10 -66 52 l0 36 62 -7 c34 -3 63 -8 65 -10z m69 -17 c42 -11
45 -14 39 -38 -9 -38 -19 -44 -59 -37 -34 7 -36 9 -36 46 0 22 3 40 6 40 3 0
25 -5 50 -11z m84 -42 c0 -19 -27 -53 -36 -45 -9 10 12 58 26 58 5 0 10 -6 10
-13z m-440 -27 c0 -30 0 -30 -57 -30 l-58 1 33 14 c18 8 35 21 38 30 3 8 15
15 25 15 14 0 19 -7 19 -30z m138 14 c2 -1 1 -16 -3 -33 l-7 -31 -56 6 c-31 4
-59 8 -60 10 -2 1 -1 16 2 32 7 28 8 29 64 24 31 -2 59 -6 60 -8z m125 -21
c15 -4 17 -11 12 -31 -4 -15 -8 -29 -11 -31 -2 -2 -27 0 -56 5 -51 9 -53 10
-56 43 l-3 33 48 -6 c26 -4 56 -10 66 -13z m90 -23 c5 -4 -4 -17 -19 -29 -26
-20 -46 -24 -45 -8 1 4 1 18 1 32 0 23 3 25 28 19 15 -4 31 -10 35 -14z m-515
-145 c-3 -3 -9 2 -12 12 -6 14 -5 15 5 6 7 -7 10 -15 7 -18z m282 -29 c0 -3
-4 -8 -10 -11 -5 -3 -10 -1 -10 4 0 6 5 11 10 11 6 0 10 -2 10 -4z m-536 -99
c-2 -7 -13 -13 -24 -14 -16 -1 -17 1 -7 12 15 18 38 19 31 2z"/>
<path d="M992 913 c2 -22 8 -28 28 -28 20 0 26 6 28 28 3 24 0 27 -28 27 -28
0 -31 -3 -28 -27z"/>
<path d="M642 923 c2 -22 8 -28 28 -28 20 0 26 6 28 28 3 24 0 27 -28 27 -28
0 -31 -3 -28 -27z"/>
<path d="M523 217 c0 -15 0 -27 1 -25 1 2 8 12 16 22 8 11 10 17 3 13 -6 -4
-13 -1 -16 5 -2 7 -4 0 -4 -15z"/>
<path d="M480 210 c0 -5 5 -10 11 -10 5 0 7 5 4 10 -3 6 -8 10 -11 10 -2 0 -4
-4 -4 -10z"/>
<path d="M1088 179 c6 -9 9 -19 5 -22 -3 -4 0 -7 8 -7 11 0 11 -2 1 -9 -18
-11 -6 -108 14 -108 7 0 10 5 6 11 -12 20 -11 39 4 53 16 16 9 37 -9 26 -7 -4
-6 1 2 10 8 10 12 19 10 20 -2 1 -15 11 -29 22 -15 12 -20 14 -12 4z"/>
<path d="M566 143 c-6 -14 -5 -15 5 -6 7 7 10 15 7 18 -3 3 -9 -2 -12 -12z"/>
<path d="M775 150 c3 -5 8 -10 11 -10 2 0 4 5 4 10 0 6 -5 10 -11 10 -5 0 -7
-4 -4 -10z"/>
<path d="M386 141 c-3 -5 2 -15 12 -22 15 -13 16 -12 4 3 -10 13 -10 17 0 21
9 4 9 6 1 6 -6 1 -14 -3 -17 -8z"/>
<path d="M975 110 c-3 -5 0 -7 9 -4 8 3 19 -3 26 -15 6 -12 16 -21 23 -21 7 0
6 4 -3 10 -8 5 -10 10 -5 10 11 1 -25 30 -36 30 -4 0 -11 -4 -14 -10z"/>
<path d="M843 95 c0 -8 4 -15 9 -15 4 0 8 4 8 9 0 6 -4 12 -8 15 -5 3 -9 -1
-9 -9z"/>
<path d="M936 78 c3 -5 10 -6 15 -3 13 9 11 12 -6 12 -8 0 -12 -4 -9 -9z"/>
<path d="M1163 36 c0 -18 3 -24 9 -18 7 7 7 16 0 28 -8 14 -9 13 -9 -10z"/>
</g>
</svg>
